PathFileType	4	(X/Y/Z)	./resultDataOpenSim/trcMotMarkerGrf/sub09/qtm-12-07.trc
DataRate	CameraRate	NumFrames	NumMarkers	Units	OrigDataRate	OrigDataStartFrame	OrigNumFrames
250.000000	250.000000	14	24	m	250.000000	355	473
Frame#	Time	L.Toe.Tip			R.Toe.Tip			L.Ankle.Lat			R.Ankle.Lat			L.Ankle.Med			R.Ankle.Med			L.Heel			R.Heel			L.Knee.Lat			R.Knee.Lat			L.Knee.Med			R.Knee.Med			L.Thigh.Upper			R.Thigh.Upper			L.ASIS			R.ASIS			V.Sacral			L.Acromium			R.Acromium			C7			L.Elbow			R.Elbow			L.Wrist.Lat			R.Wrist.Lat
		X1	Y1	Z1	X2	Y2	Z2	X3	Y3	Z3	X4	Y4	Z4	X5	Y5	Z5	X6	Y6	Z6	X7	Y7	Z7	X8	Y8	Z8	X9	Y9	Z9	X10	Y10	Z10	X11	Y11	Z11	X12	Y12	Z12	X13	Y13	Z13	X14	Y14	Z14	X15	Y15	Z15	X16	Y16	Z16	X17	Y17	Z17	X18	Y18	Z18	X19	Y19	Z19	X20	Y20	Z20	X21	Y21	Z21	X22	Y22	Z22	X23	Y23	Z23	X24	Y24	Z24

355	1.416	0.76143689	0.10363644	-0.022936825	1.0209946	0.039505115	0.11040394	0.68226403	0.23325879	-0.057498932	0.87099753	0.054721668	0.14070538	0.70312939	0.22395175	0.039232067	0.88486981	0.096728316	0.051159198	0.60093141	0.2500918	-0.015480055	0.80373083	0.036803217	0.088791252	0.99581235	0.49468051	-0.052360192	0.95706006	0.50294482	0.21326494	0.99141614	0.48399379	0.07355292	0.94112203	0.49493243	0.088365583	0.85860249	0.88486442	-0.090595331	0.86103009	0.90170807	0.2799537	0.9324357	0.97414671	-0.036003094	0.9487765	0.9853967	0.20085833	0.77328783	1.0363295	0.086823934	0.93011075	1.4292292	-0.094819862	0.92452867	1.4448656	0.23579705	0.85813509	1.4861065	0.07101713	0.78177611	1.0903247	-0.1460974	0.81805059	1.0934458	0.33748516	0.9095802	0.86005399	-0.17841745	1.0128191	0.89675363	0.32636425
356	1.42	0.77998537	0.10209125	-0.023209869	1.0210852	0.039470875	0.11047813	0.69767056	0.22972303	-0.05747884	0.87093602	0.054989272	0.14060641	0.71854262	0.22072286	0.039347343	0.88525384	0.096942988	0.051020429	0.61583949	0.2446141	-0.01545254	0.80361957	0.037095803	0.088612691	1.0059299	0.49759112	-0.051794233	0.95837173	0.50298562	0.21330814	1.000293	0.48700643	0.073605674	0.94268825	0.49505944	0.088211258	0.86494599	0.88649727	-0.090811748	0.86606366	0.90265	0.27983176	0.93808914	0.97571289	-0.035780615	0.95410825	0.98638387	0.20110265	0.77873263	1.0375456	0.086856538	0.93528577	1.4302857	-0.094775774	0.93008442	1.4461981	0.23580308	0.86353925	1.487252	0.071134889	0.78606413	1.0918851	-0.14588557	0.8238649	1.0946882	0.33783947	0.91320416	0.86126781	-0.17892173	1.0196894	0.89897616	0.32572337
357	1.424	0.79853568	0.10051845	-0.023342863	1.0211586	0.039438434	0.1105491	0.71316069	0.22603636	-0.057411952	0.87095019	0.055255653	0.1404931	0.7342916	0.21734045	0.039420029	0.88559243	0.097170571	0.050921816	0.63088975	0.23893864	-0.015370616	0.8036152	0.037400307	0.088391267	1.016056	0.50043547	-0.0512062	0.95973337	0.50308431	0.21336143	1.010075	0.49002398	0.073901728	0.94410823	0.49514096	0.087968463	0.87129272	0.88806351	-0.091021765	0.87154744	0.90357213	0.27960141	0.94377812	0.97720946	-0.035580011	0.95942697	0.98731662	0.20132379	0.78419582	1.0386854	0.086876939	0.94045333	1.4312872	-0.094724698	0.9356227	1.447463	0.23581439	0.86892732	1.4883518	0.071242688	0.79041379	1.0934266	-0.14562777	0.82966105	1.0958578	0.33820798	0.91686341	0.86244355	-0.17942303	1.0265174	0.90111117	0.32509403
358	1.428	0.81714493	0.098927728	-0.023355375	1.0212309	0.039422472	0.11061023	0.72875288	0.2222137	-0.057307765	0.8710162	0.055513728	0.14036811	0.75046444	0.21383854	0.0394399	0.8858716	0.097407505	0.050878484	0.6460809	0.23307686	-0.015224934	0.80384546	0.037786918	0.088125224	1.0262248	0.5031919	-0.050590641	0.96112133	0.50319185	0.21342626	1.0218997	0.4931221	0.074629029	0.94540726	0.4952133	0.087629131	0.87754075	0.88955732	-0.09120149	0.87714387	0.90444742	0.27933963	0.94950417	0.97863637	-0.035401992	0.9647331	0.9881921	0.20152174	0.78962601	1.0397312	0.086859919	0.94560969	1.4322346	-0.094671505	0.94115137	1.4486641	0.23583616	0.87430044	1.4894067	0.071344759	0.79480109	1.0949406	-0.14535296	0.83544353	1.0969529	0.33858805	0.92055663	0.86358084	-0.17991661	1.0333003	0.90315458	0.32447659
359	1.432	0.83588402	0.097327412	-0.023268435	1.021299	0.039418889	0.11066424	0.74447537	0.21825996	-0.057174622	0.87109805	0.055770008	0.14023853	0.76688896	0.21026089	0.039471186	0.88613963	0.097644301	0.050857875	0.66144625	0.22703331	-0.015052227	0.80428033	0.038247841	0.087899097	1.036357	0.50581068	-0.049965903	0.9625208	0.5032729	0.21350806	1.0363823	0.49631464	0.075893348	0.94661613	0.49531564	0.0872291	0.88370513	0.89097892	-0.091357625	0.88264649	0.90526645	0.27909564	0.95525575	0.97999216	-0.035242353	0.97003142	0.98900728	0.20170383	0.79500601	1.0406936	0.08681149	0.95075183	1.4331294	-0.094619306	0.94667779	1.4497999	0.23586897	0.87966447	1.4904119	0.071454279	0.79916317	1.0963675	-0.14512723	0.84122386	1.0979696	0.33896915	0.92428566	0.86466984	-0.18040811	1.0400344	0.90510378	0.32387333
360	1.436	0.8548119	0.095716194	-0.023103409	1.0213501	0.039410126	0.11071756	0.76034657	0.21417154	-0.05700903	0.87117953	0.056036802	0.14011125	0.78327747	0.20662648	0.039590669	0.88649323	0.097879914	0.050796622	0.6770334	0.22081531	-0.014903972	0.8048057	0.038681223	0.087791929	1.0462687	0.50827568	-0.049386064	0.9639263	0.50332411	0.21360944	1.0515737	0.4993962	0.077312692	0.94780808	0.49546393	0.086859886	0.88983491	0.89232798	-0.091506273	0.88797456	0.90602864	0.27889053	0.96102487	0.98127074	-0.035100009	0.97532756	0.98976367	0.20188055	0.8003641	1.0415987	0.086764851	0.95587994	1.433974	-0.094567048	0.95220422	1.4508636	0.2359104	0.88502288	1.4913618	0.071578745	0.80348928	1.0976734	-0.14496451	0.84700864	1.0989041	0.33934144	0.92805421	0.8657028	-0.18090543	1.0467154	0.90695941	0.32328549
361	1.44	0.87392758	0.094094689	-0.022875682	1.0213787	0.039379266	0.1107735	0.77636859	0.20995128	-0.056804125	0.87126094	0.056315355	0.13999021	0.79952143	0.20293087	0.039809799	0.88698937	0.098125256	0.050671335	0.69285506	0.21444396	-0.014791149	0.80530665	0.039009671	0.087774075	1.0558119	0.51062814	-0.048910741	0.96533696	0.50336167	0.21372919	1.0634197	0.50200339	0.078041152	0.9490716	0.4956477	0.08660276	0.89595067	0.89360058	-0.091657232	0.89312027	0.90673027	0.27872867	0.96684161	0.98246082	-0.034989236	0.98062138	0.99046684	0.20205824	0.8057173	1.042453	0.08673255	0.9609968	1.4347677	-0.094512329	0.95772913	1.4518501	0.23596005	0.8903762	1.492253	0.071713544	0.80786977	1.098917	-0.14477223	0.85279498	1.0997589	0.33970578	0.93186448	0.86667969	-0.18141019	1.0533394	0.90872422	0.32271151
362	1.444	0.89316875	0.092474863	-0.022588762	1.0213997	0.039327384	0.11082765	0.79253411	0.20561314	-0.056559903	0.8713483	0.056593627	0.13987267	0.8157212	0.199167	0.040089518	0.88758849	0.098391872	0.050534324	0.70888678	0.20794855	-0.014681281	0.80569523	0.039270017	0.087734287	1.064999	0.51292377	-0.048560822	0.96674756	0.50339521	0.21385528	1.0701533	0.50402363	0.077690238	0.95052268	0.49581137	0.086534557	0.90205319	0.89478938	-0.091811331	0.89811661	0.90736952	0.27860628	0.9727584	0.98355222	-0.034932025	0.98590181	0.99112098	0.20223367	0.81105973	1.0432452	0.086694751	0.96610559	1.4355075	-0.09445341	0.96324767	1.4527596	0.23601858	0.89572027	1.4930809	0.07184556	0.81237211	1.1001586	-0.14447245	0.85857631	1.1005432	0.34007269	0.93571695	0.86760234	-0.18191859	1.0599083	0.91039838	0.32214988
363	1.448	0.91247905	0.09086522	-0.022239253	1.0214477	0.039274225	0.11086571	0.8088375	0.20117199	-0.056280945	0.87144621	0.056860155	0.13974972	0.83201987	0.19533779	0.04039306	0.8882289	0.098688419	0.050453244	0.7251245	0.20135007	-0.014555708	0.8059436	0.03953902	0.087589305	1.0739672	0.51517548	-0.048308562	0.96815099	0.50342133	0.21397013	1.0744844	0.50579883	0.076837018	0.95228265	0.49585295	0.086750747	0.90814116	0.89588611	-0.091964444	0.90301348	0.9079514	0.27851383	0.97876689	0.98454555	-0.03492304	0.99115296	0.99172552	0.20239656	0.81640072	1.0439659	0.08662755	0.971209	1.4361911	-0.094390059	0.96875185	1.4535957	0.23608425	0.90105236	1.4938365	0.071966319	0.81693722	1.1013602	-0.14411522	0.86435557	1.1012673	0.34045199	0.93961012	0.86846908	-0.18242734	1.0664329	0.91197651	0.32160248
364	1.452	0.93184324	0.089267426	-0.021826668	1.0215574	0.039234877	0.11087071	0.82528058	0.19663745	-0.055968432	0.87155782	0.057114183	0.13961116	0.84850084	0.19145616	0.040705317	0.88884287	0.099002122	0.05042725	0.7415945	0.19465897	-0.014429863	0.8060896	0.039833011	0.087327784	1.0828435	0.51733894	-0.048102594	0.96955344	0.50344011	0.21406993	1.080058	0.50774205	0.076265777	0.95433711	0.49571188	0.087264469	0.91420707	0.89688492	-0.09211247	0.90785455	0.90848578	0.27843766	0.98476314	0.98545233	-0.0349159	0.996372	0.99227644	0.20253884	0.82176931	1.0446102	0.086519511	0.97630833	1.4368198	-0.094324641	0.9742347	1.4543605	0.23615218	0.90637476	1.4945179	0.072078345	0.82147026	1.1024499	-0.14379727	0.87015419	1.1019383	0.3408505	0.94354122	0.86927713	-0.18293382	1.0729254	0.91345275	0.32107293
365	1.456	0.95125366	0.087689419	-0.021350634	1.0217299	0.03920348	0.11084119	0.84187047	0.19201921	-0.055621752	0.87168486	0.057362538	0.13945103	0.8651804	0.18754057	0.04102296	0.88921219	0.099267959	0.050386123	0.75829275	0.18788654	-0.014303542	0.80618809	0.040125368	0.086978311	1.0916629	0.51935539	-0.047904629	0.97097934	0.50345866	0.21416353	1.0878687	0.50991371	0.076187336	0.95645893	0.49548034	0.08785819	0.92023747	0.89778412	-0.092250932	0.91266387	0.90898155	0.27836436	0.99064331	0.98628305	-0.034864453	1.0015774	0.99277136	0.20266324	0.82718364	1.0451778	0.086367941	0.9814026	1.4373962	-0.094260741	0.97969587	1.4550524	0.2362173	0.91168944	1.4951383	0.072190783	0.82595204	1.1034129	-0.1435497	0.87600129	1.1025586	0.34127431	0.94750826	0.87002606	-0.18343305	1.0793908	0.91482709	0.32056324
366	1.46	0.97069431	0.08614576	-0.020797573	1.0219145	0.039160931	0.11080083	0.85861178	0.18733267	-0.055244556	0.8718231	0.057611124	0.13927257	0.88200431	0.18360867	0.041354013	0.8890959	0.099422041	0.050273205	0.77517184	0.18104992	-0.014141587	0.80627868	0.040415263	0.086590046	1.1003788	0.52120488	-0.047713344	0.97246185	0.50347602	0.21425366	1.0967914	0.51208035	0.076356489	0.95834942	0.49536853	0.08814887	0.92622631	0.89858689	-0.09237754	0.91744425	0.90943647	0.27828173	0.99640001	0.98703967	-0.034762708	1.0067931	0.9932141	0.20278407	0.8326354	1.0456747	0.086173846	0.98649099	1.4379202	-0.09419974	0.98514179	1.4556698	0.23627898	0.91699667	1.4957092	0.072313667	0.83042095	1.1042759	-0.14334647	0.88189891	1.1031206	0.34171628	0.95151124	0.87071655	-0.18391971	1.0858261	0.91610293	0.32007402
367	1.464	0.99016805	0.084654126	-0.020151709	1.0220521	0.039099728	0.11077952	0.8754982	0.18259953	-0.054840004	0.87195918	0.057861657	0.13908902	0.89884456	0.17967172	0.041739238	0.88865252	0.099504551	0.050115564	0.79218422	0.17416763	-0.013906972	0.80638645	0.040732413	0.086214292	1.1089053	0.52290736	-0.047558447	0.97402785	0.50348373	0.2143335	1.1056399	0.51402259	0.076511908	0.95986735	0.49550896	0.087931163	0.93217977	0.8993002	-0.092495637	0.92218654	0.90983711	0.27817848	1.0020922	0.98772066	-0.03463452	1.0120276	0.99361147	0.20291585	0.83810359	1.0461082	0.085941682	0.99157576	1.4383907	-0.094140033	0.99058075	1.4562161	0.2363426	0.92229492	1.4962245	0.072449016	0.83491229	1.1050598	-0.14315656	0.88780406	1.1036051	0.34214637	0.95555214	0.87134991	-0.1843921	1.0922252	0.91728272	0.31960568
368	1.468	1.009696	0.083239949	-0.019423819	1.0221511	0.039047322	0.11078711	0.89250832	0.17784779	-0.054401015	0.87207455	0.058115882	0.13891517	0.91561569	0.17573734	0.042231089	0.88838841	0.099631804	0.050008586	0.80930651	0.16725858	-0.013581215	0.80650602	0.041081123	0.08584399	1.1171642	0.52448175	-0.047474927	0.97567054	0.50348456	0.21440022	1.1140035	0.51568419	0.076553959	0.96111873	0.49584079	0.087393283	0.93811154	0.89993043	-0.092611567	0.92689051	0.91017738	0.27805425	1.0077745	0.98832759	-0.034505429	1.017271	0.99396561	0.20305895	0.84357365	1.0464817	0.085679869	0.99666128	1.4388103	-0.094081696	0.99601898	1.4566975	0.23641552	0.92758263	1.4966727	0.072585818	0.83943896	1.1057724	-0.14296409	0.89366709	1.103998	0.34253677	0.95963268	0.87192938	-0.18485143	1.0985834	0.9183687	0.31915877
